# xmcd
#
# Track frame offsets:
#	150
#	16233
#	32081
#	51175
#	66527
#	84081
#	99057
#	110665
#	127277
#	142846
#	159581
#	176292
#	189885
#	207841
#	221684
#	236121
#
# Disc length: 3292 seconds
#
# Revision: 1
# Processed by: cddbd v1.5.2PL0 Copyright (c) Steve Scherf et al.
# Submitted via: audiograbber 1.83.01
#
DISCID=d70cda10
DTITLE=Jantje Smit - Star Edition
DYEAR=2006
DGENRE=
TTITLE0=Und diese Rosen sind für dich, Mamatschi
TTITLE1=Jeder braucht ein bisschen Glück
TTITLE2=Ich sing´ das Lied für dich allein
TTITLE3=Santa Madonna
TTITLE4=Oh mama Mia
TTITLE5=O Sole mio
TTITLE6=Santa Lucia
TTITLE7=Ein bisschen Liebe
TTITLE8=Ich zeig´ dir die Berge (Duett mit Oswald Sattler)
TTITLE9=Sing und lach noch mal mit mir
TTITLE10=So kann es weitergehn
TTITLE11=Ich steh auf Blondinen
TTITLE12=Und dann wird auch für dich die Sonne scheinen
TTITLE13=Hallo Engel
TTITLE14=Drei Stimmen für ein Halleluja (drei goldene Stimmen: Smit, George Bak
TTITLE14=er, Piet Veerman)
TTITLE15=Tulpen aus Amsterdam
EXTD=
EXTT0=
EXTT1=
EXTT2=
EXTT3=
EXTT4=
EXTT5=
EXTT6=
EXTT7=
EXTT8=
EXTT9=
EXTT10=
EXTT11=
EXTT12=
EXTT13=
EXTT14=
EXTT15=
PLAYORDER=
